<?xml version="1.0" encoding="utf-8"?>
<!-- Generator: Adobe Illustrator 26.0.1, SVG Export Plug-In . SVG Version: 6.00 Build 0)  -->
<svg version="1.1" xmlns="http://www.w3.org/2000/svg" xmlns:xlink="http://www.w3.org/1999/xlink" x="0px" y="0px"  width="324.4px" height="64.8px"
	 viewBox="0 0 324.4 64.8" style="enable-background:new 0 0 324.4 64.8;" xml:space="preserve">
<style type="text/css">
	.st0{fill:#002349;}
</style>
<g id="Layer_1">
	<g>
		<rect x="194.5" y="2.7" class="st0" width="0.9" height="59.4"/>
	</g>
	<g>
		<polygon class="st0" points="156.5,11.7 152.4,21.6 153.4,21.6 161.2,11.7 		"/>
		<path class="st0" d="M11.8,35.7c-2.6,0-4.9-0.7-6.6-1.5l-1.7,1.5H2.7l-0.5-9.7L3.1,26c2.8,6.3,6,8.3,9,8.3c3.1,0,5-2.1,5-4.8
			c0-2.6-1-3.9-5.1-5.6c-1.4-0.6-3-1.1-4.4-1.8c-3.1-1.5-4.7-3.9-4.7-7.1c0-5.2,4.5-8.3,8.9-8.3c2.2,0,3.7,0.6,5.1,1.4l1.7-1.5h0.7
			l0.7,8.6l-0.9,0.1c-2.4-4.8-5-7.2-7.8-7.2c-2.5,0-4.1,1.7-4.1,4.2c0,2.1,0.9,3.6,4,5c1.5,0.7,3.3,1.3,4.9,2.1
			c3.5,1.7,5.2,3.9,5.2,7.2C21.4,32.3,16.5,35.7,11.8,35.7"/>
		<path class="st0" d="M34.9,15.9c-3.1,0-4.9,3.4-4.9,9.4c0,5.9,2,9.3,5.1,9.3c3.2,0,4.9-3.4,4.9-9.4C40,19.3,38.1,15.9,34.9,15.9
			 M34.7,35.8c-6.6,0-9.9-4.8-9.9-10.6c0-5.4,3.8-10.5,10.5-10.5c6.6,0,9.8,4.7,9.8,10.5C45.1,30.6,41.4,35.8,34.7,35.8"/>
		<path class="st0" d="M54.6,35.6c-3.4,0-4.5-1.7-4.5-4.8V17.7h-3.2v-0.6l4-3.2L54,9.8h0.7v5.7h6.6v2.3h-6.6V29
			c0,1.7,0.3,2.8,1.1,3.4c0.7,0.5,1.7,0.7,3.2,0.7c0.7,0,1.6,0,2.4-0.1l0,0.6C59.7,34.7,56.9,35.6,54.6,35.6"/>
		<path class="st0" d="M75,18c-1.7,0-2.9,0.3-4.5,1.1v14.4l2.4,0.9v0.6H63v-0.6l2.7-0.9V7.2l-3-2V4.8l7.5-2.1l0.2,0.1v15.3l0.2,0.1
			c2.6-2.4,4.9-3.5,7.3-3.5c3.9,0,5.6,3,5.6,6.1v12.8l2.8,0.9v0.6h-9.9v-0.6l2.4-0.9v-11C78.8,19.7,77.7,18,75,18"/>
		<path class="st0" d="M101.4,22.3c-0.2-4.1-1.4-6.3-3.9-6.3c-2.5,0-4.5,2.7-4.7,6.7L101.4,22.3L101.4,22.3z M92.7,23.7
			c0,5.5,1.6,9.2,6.5,9.2c2.2,0,4-0.4,6.6-1.4L106,32c-2.7,2.3-5.6,3.8-8.4,3.8c-6,0-9.9-4.1-9.9-10.2c0-6.2,4.7-10.9,10-10.9
			c5.8,0,8.6,3.9,8.5,9H92.7L92.7,23.7z"/>
		<path class="st0" d="M118.6,17.8c-1.3,0-2.4,0.3-3.4,0.7v13.8c1.4,1.4,3.1,2,4.8,2c2.6,0,4.7-2.3,4.7-8.5
			C124.6,20.4,122.3,17.8,118.6,17.8 M117.9,35.8c-2.3,0-5.3-0.5-7.4-1.1V7.2l-3.1-2V4.8l7.5-2.1l0.2,0.1v14.6l0.2,0.1
			c1.5-1.5,3.6-2.9,6.3-2.9c4.1,0,7.9,3.8,7.9,10C129.6,31,124.9,35.8,117.9,35.8"/>
		<path class="st0" d="M141.5,36.4c-2.2,5.4-4.2,7.7-6.9,7.7c-2.3,0-3.4-1.4-3.4-2.8c0-1.4,1.2-2.5,2.6-2.5c1.5,0,2.4,0.8,3.4,2.1
			c0.8-0.9,1.8-2.5,2.4-3.7l0.7-1.7L132.6,17l-2.7-1v-0.6h10.6V16l-2.8,1l4.7,12.8h0.2l4.3-12.5l-2.5-1.4v-0.6h7.5V16l-2.8,1.4
			L141.5,36.4L141.5,36.4z"/>
		<path class="st0" d="M166.4,35.8c-2.4,0-4.5-0.4-6.5-1.2l0-5.8l0.9-0.1c2.4,4.1,4.1,5.7,6.5,5.7c2.1,0,3.3-1.3,3.3-3.3
			c0-2.3-2.3-3.1-4.8-4.1c-2.8-1.2-5.7-2.5-5.7-6.1c0-3.4,3.1-6.2,7.5-6.2c1.7,0,4.1,0.3,5.3,0.8l0.1,5.2l-0.8,0.2
			c-2.1-3.5-3.5-4.9-5.5-4.9c-1.8,0-3,1.2-3,2.8c0,2.3,2.4,3.2,4.8,4.2c2.8,1.1,5.7,2.4,5.7,6.2C174.2,33.2,170.7,35.8,166.4,35.8"
			/>
		<path class="st0" d="M2.7,62.1h1V52h-1V62.1L2.7,62.1z M7.2,62.1h0.9v-8.6h0l5.8,8.6h0.9V52h-0.9v8.4h0L8.3,52h-1V62.1L7.2,62.1z
			 M20.3,62.1h1v-9.3h3.3V52H17v0.9h3.3V62.1L20.3,62.1z M26.7,62.1h6.4v-0.9h-5.4v-4h3.8v-0.9h-3.8v-3.4h5.1V52h-6.1V62.1
			L26.7,62.1z M35.7,62.1h1v-4.6h2.5l2.5,4.6h1.1l-2.6-4.7c1.5-0.3,2.4-1.1,2.4-2.7c0-1.8-1.3-2.7-3.5-2.7h-3.4V62.1L35.7,62.1z
			 M36.7,56.7v-3.8H39c1.7,0,2.6,0.5,2.6,1.9c0,1.5-0.9,1.9-2.6,1.9H36.7L36.7,56.7z M46,62.1h0.9v-8.6h0l5.8,8.6h0.9V52h-0.9v8.4h0
			L47.1,52h-1V62.1L46,62.1z M56.2,62.1h0.9l1.1-3.1h4.1l1.1,3.1h1l-3.6-10.2h-1.1L56.2,62.1L56.2,62.1z M58.6,58.1l1.7-5.1h0
			l1.7,5.1H58.6L58.6,58.1z M68.4,62.1h1v-9.3h3.3V52h-7.5v0.9h3.3V62.1L68.4,62.1z M75,62.1h1V52h-1V62.1L75,62.1z M83.2,62.3
			c2.5,0,4.3-2.1,4.3-5.3c0-3.2-1.8-5.3-4.3-5.3c-2.5,0-4.3,2.1-4.3,5.3C78.9,60.2,80.7,62.3,83.2,62.3L83.2,62.3z M83.2,61.4
			c-1.9,0-3.3-1.6-3.3-4.4c0-2.8,1.4-4.4,3.3-4.4c1.9,0,3.3,1.6,3.3,4.4C86.5,59.8,85.1,61.4,83.2,61.4L83.2,61.4z M90.6,62.1h0.9
			v-8.6h0l5.8,8.6h0.9V52h-0.9v8.4h0L91.6,52h-1V62.1L90.6,62.1z M100.8,62.1h0.9l1.1-3.1h4.1l1.1,3.1h1l-3.6-10.2h-1.1L100.8,62.1
			L100.8,62.1z M103.1,58.1l1.7-5.1h0l1.7,5.1H103.1L103.1,58.1z M111.7,62.1h5.9v-0.9h-5V52h-1V62.1L111.7,62.1z M123.5,62.1h1
			v-4.6h2.5l2.5,4.6h1.1l-2.6-4.7c1.5-0.3,2.4-1.1,2.4-2.7c0-1.8-1.3-2.7-3.5-2.7h-3.4V62.1L123.5,62.1z M124.5,56.7v-3.8h2.4
			c1.7,0,2.6,0.5,2.6,1.9c0,1.5-0.9,1.9-2.6,1.9H124.5L124.5,56.7z M133.5,62.1h6.4v-0.9h-5.4v-4h3.8v-0.9h-3.8v-3.4h5.1V52h-6.1
			V62.1L133.5,62.1z M141.1,62.1h0.9l1.1-3.1h4.1l1.1,3.1h1l-3.6-10.2h-1.1L141.1,62.1L141.1,62.1z M143.5,58.1l1.7-5.1h0l1.7,5.1
			H143.5L143.5,58.1z M151.9,62.1h5.9v-0.9h-5V52h-1V62.1L151.9,62.1z M160.5,62.1h1v-9.3h3.3V52h-7.5v0.9h3.3V62.1L160.5,62.1z
			 M169.3,62.1h1v-4.5l3.4-5.7h-1l-2.8,4.8l-2.9-4.8h-1.1l3.4,5.7V62.1L169.3,62.1z"/>
	</g>
	<g>
		<g>
			<path class="st0" d="M215.5,3h13.3v2h-11.1v7.8h8.2v2h-8.2v10.9h-2.2V3z"/>
		</g>
		<g>
			<path class="st0" d="M230.6,9.5h2.1v3.2h0.1c1.3-2,3.2-3.5,6.4-3.5h0.4l-0.2,2c0,0-0.6,0-0.6,0c-2.6,0-4.7,1.5-6,4v10.5h-2.1V9.5
				z"/>
		</g>
		<g>
			<path class="st0" d="M241.3,21.9c0-3.2,2.7-5.5,11-6.8v-0.8c0-2.2-1.2-3.3-3.3-3.3c-2.5,0-4.4,1.1-6,2.5l-1.1-1.3
				c1.9-1.8,4.2-3,7.4-3c3.6,0,5.2,1.9,5.2,5.2v7.3c0,2,0.1,3.2,0.5,4h-2.2c-0.2-0.7-0.4-1.4-0.4-2.3c-1.9,1.7-4,2.6-6.4,2.6
				C243,25.9,241.3,24.4,241.3,21.9z M252.3,21.6v-5c-6.9,1.2-8.9,2.9-8.9,5c0,1.7,1.1,2.6,2.9,2.6
				C248.6,24.2,250.6,23.2,252.3,21.6z"/>
		</g>
		<g>
			<path class="st0" d="M258.8,9.5h2.1V12c1.6-1.5,3.6-2.9,6.2-2.9c3.2,0,4.8,1.8,4.8,4.8v11.7h-2.1V14.4c0-2.3-1-3.4-3.2-3.4
				c-2.1,0-3.8,1.1-5.6,2.8v11.8h-2.1V9.5z"/>
		</g>
		<g>
			<path class="st0" d="M275.5,17.6c0-5.8,3.6-8.4,7.2-8.4c3.5,0,5.2,2.1,6.2,4.4l-1.8,0.8c-0.9-2.2-2.2-3.4-4.4-3.4
				c-2.4,0-5,1.7-5,6.6c0,4.2,2.1,6.6,5,6.6c2.2,0,3.5-1,4.6-3.4l1.7,0.7c-1.3,2.7-3.2,4.5-6.4,4.5C278.7,26,275.5,22.9,275.5,17.6z
				"/>
		</g>
		<g>
			<path class="st0" d="M291.4,17.6c0-5.7,3.7-8.4,7.1-8.4c3.8,0,6.6,2.9,6.6,8.4V18h-11.6c0,4,2.3,6.2,5.1,6.2c2.4,0,3.8-1,5-2.9
				l1.3,1c-1.4,2.3-3.4,3.7-6.5,3.7C294.7,26,291.4,23.1,291.4,17.6z M303,16.3c-0.2-3.1-1.7-5.3-4.6-5.3c-2.3,0-4.5,1.7-4.9,5.3
				H303z"/>
		</g>
		<g>
			<path class="st0" d="M215.5,39.4h2.8l7.6,19.9h0.1l7.5-19.9h2.9v22.7h-2.2v-19h-0.1c-0.3,1-0.9,2.5-1.4,4l-5.9,15h-2l-5.9-15
				c-0.6-1.5-0.9-2.4-1.4-4h-0.1v19.1h-2V39.4z"/>
		</g>
		<g>
			<path class="st0" d="M240.6,54.1c0-5.4,3.3-8.4,7.3-8.4c4,0,7.3,3,7.3,8.4c0,5.4-3.3,8.4-7.3,8.4C244,62.5,240.6,59.4,240.6,54.1
				z M253.1,54c0-3.5-1.8-6.6-5.2-6.6c-3.3,0-5.2,2.8-5.2,6.6c0,3.6,1.7,6.6,5.2,6.6C251.2,60.7,253.1,57.9,253.1,54z"/>
		</g>
		<g>
			<path class="st0" d="M258.9,46h2.1v2.5c1.6-1.5,3.6-2.9,6.2-2.9c3.2,0,4.8,1.8,4.8,4.8v11.7h-2.1V50.8c0-2.3-1-3.4-3.2-3.4
				c-2.1,0-3.8,1.1-5.6,2.8v11.8h-2.1V46z"/>
		</g>
		<g>
			<path class="st0" d="M275.4,58.4c0-3.2,2.7-5.5,10.9-6.8v-0.8c0-2.2-1.2-3.3-3.3-3.3c-2.5,0-4.4,1.1-6,2.5l-1.1-1.3
				c1.9-1.8,4.2-3,7.4-3c3.6,0,5.2,1.9,5.2,5.2v7.3c0,2,0.1,3.2,0.5,4h-2.2c-0.2-0.7-0.4-1.4-0.4-2.3c-1.9,1.7-4,2.6-6.4,2.6
				C277.1,62.4,275.4,60.9,275.4,58.4z M286.4,58.1v-5c-6.9,1.2-8.9,2.9-8.9,5c0,1.7,1.1,2.6,2.9,2.6
				C282.7,60.7,284.7,59.7,286.4,58.1z"/>
		</g>
		<g>
			<path class="st0" d="M291.9,54.1c0-5.8,3.6-8.4,7.2-8.4c3.5,0,5.2,2.1,6.2,4.4l-1.8,0.8c-0.9-2.2-2.2-3.4-4.4-3.4
				c-2.4,0-5,1.7-5,6.6c0,4.2,2.1,6.6,5,6.6c2.2,0,3.5-1,4.6-3.4l1.7,0.7c-1.3,2.7-3.2,4.5-6.4,4.5
				C295.2,62.5,291.9,59.4,291.9,54.1z"/>
		</g>
		<g>
			<path class="st0" d="M307.8,54.1c0-5.4,3.3-8.4,7.3-8.4c4,0,7.3,3,7.3,8.4c0,5.4-3.3,8.4-7.3,8.4
				C311.2,62.5,307.8,59.4,307.8,54.1z M320.4,54c0-3.5-1.8-6.6-5.2-6.6c-3.3,0-5.2,2.8-5.2,6.6c0,3.6,1.7,6.6,5.2,6.6
				C318.4,60.7,320.4,57.9,320.4,54z"/>
		</g>
	</g>
</g>
<g id="Guides">
</g>
</svg>
